<?xml version="1.0" encoding="utf-8"?>
<!-- Generator: Adobe Illustrator 21.1.0, SVG Export Plug-In . SVG Version: 6.00 Build 0)  -->
<svg version="1.1" id="Layer_1" xmlns="http://www.w3.org/2000/svg" xmlns:xlink="http://www.w3.org/1999/xlink" x="0px" y="0px"
	 viewBox="0 0 219 87" style="enable-background:new 0 0 219 87;" xml:space="preserve">
<style type="text/css">
	.st0{fill:#A6192E;}
</style>
<g>
	<path class="st0" d="M105.4,63.7c13.6,0,20.7-7,20.7-16.6s-5.7-14.5-16.6-15.9l-2.8-0.4c-6-0.9-8.2-2.8-8.2-5.8
		c0-3.3,2.4-5.7,7-5.7c4.3,0,8.2,1.4,12.2,4c0.4,0.2,0.8,0.2,1.1-0.2l4.7-7c0.4-0.5,0.3-0.9-0.2-1.2c-4.4-3.4-10.9-5.5-17.9-5.5
		c-11.4,0-18.6,6.4-18.6,16.1c0,9.3,6,14.3,16.6,15.8l2.8,0.4c6.3,0.9,8.1,2.8,8.1,5.9c0,3.7-3.1,6.3-8.6,6.3
		c-5.6,0-10.3-2.6-13.8-5.4c-0.4-0.3-0.9-0.3-1.2,0.1L85,55.2c-0.4,0.5-0.2,1,0.1,1.3C89.2,60.4,97.2,63.7,105.4,63.7L105.4,63.7z
		 M129.8,62c0,0.5,0.3,0.8,0.8,0.8h9.8c0.5,0,0.8-0.3,0.8-0.8V42.2c0-0.3,0.2-0.5,0.5-0.5h18.9c0.5,0,0.8-0.3,0.8-0.8v-8.2
		c0-0.5-0.3-0.8-0.8-0.8h-18.9c-0.3,0-0.5-0.2-0.5-0.5V20.5c0-0.3,0.2-0.5,0.5-0.5h22.7c0.5,0,0.8-0.3,0.8-0.8V11
		c0-0.5-0.3-0.8-0.8-0.8h-33.7c-0.5,0-0.8,0.3-0.8,0.8V62L129.8,62z M189,63.7c11.8,0,20.1-7.1,20.1-20.2V11c0-0.5-0.3-0.8-0.8-0.8
		h-9.8c-0.5,0-0.8,0.3-0.8,0.8v32.8c0,6.3-3.5,9.8-8.7,9.8c-5.3,0-8.8-3.6-8.8-9.8V11c0-0.5-0.3-0.8-0.8-0.8h-9.8
		c-0.5,0-0.8,0.3-0.8,0.8v32.5C168.8,56.6,177.2,63.7,189,63.7L189,63.7z"/>
	<path class="st0" d="M25.1,77.6c12.5,0,19-6.4,19-19.2V25.1c0-0.5-0.3-0.8-0.8-0.8h-9.5c-0.5,0-0.8,0.3-0.8,0.8v2.8H33
		c-1.7-2.7-5-4.4-9.8-4.4c-6.3,0-10.8,3.2-12.8,9.2c-0.9,2.8-1.3,5.4-1.3,9.5s0.4,6.7,1.3,9.5c2,6.1,6.5,9.2,12.8,9.2
		c4.8,0,8.1-1.7,9.8-4.4H33v3.2c0,5.6-2.4,8.4-7.7,8.4c-3,0-5.5-1.2-7.9-3.3c-0.4-0.4-0.8-0.4-1.2,0l-5.6,5.7
		c-0.4,0.4-0.4,0.8-0.1,1.2C13.4,75.1,19.4,77.6,25.1,77.6L25.1,77.6z M26.6,51.7c-3,0-4.7-1.4-5.7-4.1c-0.4-1.4-0.6-3-0.6-5.4
		c0-2.4,0.2-3.9,0.6-5.4c0.9-2.7,2.7-4.1,5.7-4.1c3.1,0,4.8,1.4,5.7,4.1c0.5,1.4,0.7,3,0.7,5.4c0,2.4-0.2,3.9-0.7,5.4
		C31.5,50.3,29.7,51.7,26.6,51.7L26.6,51.7z M64.6,63.4c8,0,14.4-3.8,16.6-10.7c0.9-2.8,1.3-5.4,1.3-9.2c0-3.8-0.4-6.5-1.3-9.2
		c-2.2-6.9-8.5-10.7-16.6-10.7c-8,0-14.4,3.8-16.6,10.7c-0.9,2.8-1.3,5.4-1.3,9.2c0,3.8,0.4,6.5,1.3,9.2
		C50.2,59.6,56.5,63.4,64.6,63.4L64.6,63.4z M64.6,54c-2.9,0-5-1.4-5.9-4.1c-0.6-1.7-0.7-3.3-0.7-6.5s0.2-4.8,0.7-6.5
		c0.9-2.7,3-4.1,5.9-4.1c2.9,0,5,1.4,5.9,4.1c0.6,1.7,0.7,3.3,0.7,6.5s-0.2,4.8-0.7,6.5C69.6,52.6,67.5,54,64.6,54L64.6,54z"/>
</g>
</svg>
